<?xml version="1.0" encoding="utf-8"?>
<svg xmlns="http://www.w3.org/2000/svg" version="1.1" viewBox="51.048 228.433 360.267 660.82" xmlns:bx="https://boxy-svg.com">
  <defs>
    <bx:export>
      <bx:file format="svg" href="#object-0" excluded="true"/>
      <bx:file format="svg" href="#object-1" path="Untitled 2.svg" excluded="true"/>
      <bx:file format="svg" href="#object-2" path="Untitled 3.svg" excluded="true"/>
      <bx:file format="svg" href="#object-3" path="Untitled 4.svg" excluded="true"/>
      <bx:file format="svg" href="#object-4" path="Untitled 5.svg" excluded="true"/>
      <bx:file format="svg" href="#object-5" path="Untitled 6.svg" excluded="true"/>
      <bx:file format="svg" href="#object-6" path="Untitled 7.svg" excluded="true"/>
      <bx:file format="svg" href="#object-7" path="Untitled 8.svg" excluded="true"/>
      <bx:file format="svg" href="#object-8" path="Untitled 9.svg" excluded="true"/>
      <bx:file format="svg" href="#object-9" path="Untitled 10.svg" excluded="true"/>
      <bx:file format="svg" href="#object-10" path="Untitled 11.svg" excluded="true"/>
      <bx:file format="svg" href="#object-11" path="Untitled 12.svg" excluded="true"/>
      <bx:file format="svg" href="#object-12" path="Untitled 13.svg" excluded="true"/>
      <bx:file format="svg" href="#object-13" path="Untitled 14.svg" excluded="true"/>
      <bx:file format="svg" href="#object-14" path="Untitled 15.svg" excluded="true"/>
      <bx:file format="svg" href="#object-15" path="Untitled 16.svg" excluded="true"/>
      <bx:file format="svg" href="#object-16" path="Untitled 17.svg" excluded="true"/>
      <bx:file format="svg" href="#object-17" path="Untitled 18.svg" excluded="true"/>
      <bx:file format="svg" href="#object-18" path="Untitled 19.svg" excluded="true"/>
      <bx:file format="svg" href="#object-19" path="Untitled 20.svg" excluded="true"/>
      <bx:file format="svg" href="#object-20" path="Untitled 21.svg" excluded="true"/>
      <bx:file format="svg" href="#object-21" path="Untitled 22.svg" excluded="true"/>
      <bx:file format="svg" href="#object-22" path="Untitled 23.svg" excluded="true"/>
      <bx:file format="svg" href="#object-23" path="Untitled 24.svg" excluded="true"/>
      <bx:file format="svg" href="#object-24" path="Untitled 25.svg" excluded="true"/>
      <bx:file format="webp" path="savta-tawk.webp" width="100" height="184"/>
    </bx:export>
  </defs>
  <g stroke-width="2.00" fill="none" stroke-linecap="butt" style="visibility: hidden;" transform="matrix(0.57958, 0, 0, 0.584974, 73.448105, 98.18396)">
    <path stroke="#fedecb" vector-effect="non-scaling-stroke" d=" M 158.14 580.00 Q 171.89 605.16 194.13 622.88 Q 194.94 623.53 194.85 624.54" id="object-0"/>
    <path stroke="#fcd2c1" vector-effect="non-scaling-stroke" d=" M 194.85 624.54 Q 193.74 632.94 191.76 638.51 Q 186.21 654.15 170.23 660.95" id="object-1"/>
    <path stroke="#bacec7" vector-effect="non-scaling-stroke" d=" M 170.23 660.95 C 167.23 662.42 164.22 663.96 161.13 665.13 Q 144.18 671.56 127.88 679.11 C 101.17 691.47 77.38 710.65 69.15 740.13 C 67.45 746.22 65.71 753.70 71.86 757.64 C 80.11 762.93 90.19 766.39 99.69 768.80 Q 128.79 776.20 160.93 780.09 Q 249.74 790.86 336.99 784.68 Q 376.05 781.92 410.62 775.58 C 425.94 772.77 440.70 769.54 454.93 764.19 Q 459.87 762.33 466.01 758.81 C 472.62 755.03 471.52 748.14 469.87 741.87 C 464.42 721.24 450.26 703.67 432.79 691.72 C 413.45 678.48 390.87 669.94 369.17 660.64" id="object-2"/>
    <path stroke="#fcd2c1" vector-effect="non-scaling-stroke" d=" M 369.17 660.64 Q 367.06 659.50 364.78 658.41 Q 350.62 651.57 346.39 636.37 Q 344.63 630.05 343.72 622.23" id="object-3"/>
    <path stroke="#fedecb" vector-effect="non-scaling-stroke" d=" M 343.72 622.23 Q 363.41 606.42 376.36 584.49 Q 376.69 583.94 377.51 581.99 Q 378.18 580.39 379.17 579.81" id="object-4"/>
    <path stroke="#b6afa2" vector-effect="non-scaling-stroke" d=" M 379.17 579.81 Q 381.98 581.09 386.73 582.02 C 411.34 586.84 434.73 577.76 446.92 555.64 C 454.24 542.34 454.17 526.25 450.71 511.77 A 1.31 1.30 -25.4 0 1 451.20 510.41 C 468.78 497.24 478.79 477.76 477.95 455.93 C 477.24 437.60 468.14 420.11 453.58 409.02 A 0.92 0.91 32.9 0 1 453.33 407.88 Q 459.51 396.00 460.24 381.95 Q 461.67 354.69 443.18 334.44 C 433.20 323.50 418.74 316.55 403.95 315.94 A 0.86 0.86 0.0 0 1 403.13 315.16 C 400.19 280.62 368.65 258.15 335.05 269.30 A 0.76 0.75 -25.9 0 1 334.17 269.00 Q 318.77 246.11 291.67 238.57 Q 280.16 235.36 265.51 235.92 Q 241.94 236.82 223.78 249.16 C 216.86 253.86 208.77 261.50 204.60 269.22 A 0.96 0.94 -65.9 0 1 203.45 269.67 Q 180.69 261.72 160.68 272.48 C 144.76 281.03 135.41 297.49 134.06 315.23 A 0.76 0.75 -88.7 0 1 133.33 315.93 C 114.78 316.35 97.26 326.98 87.10 342.33 C 74.01 362.10 73.35 386.54 84.03 407.82 A 0.93 0.92 -32.9 0 1 83.78 408.95 C 49.37 436.32 51.79 484.83 86.48 510.66 A 1.66 1.65 -66.1 0 1 87.12 512.34 Q 86.77 514.02 85.88 519.36 Q 81.46 546.08 98.51 565.68 C 113.41 582.81 136.99 587.28 158.14 580.00" id="object-5"/>
    <path stroke="#b69580" vector-effect="non-scaling-stroke" d=" M 379.17 579.81 Q 386.59 564.96 389.90 548.44 A 0.56 0.55 24.4 0 1 390.79 548.11 C 398.04 553.75 406.93 551.25 412.00 544.23 Q 415.40 539.51 416.83 536.30 Q 423.26 521.89 426.10 505.21" id="object-6"/>
    <path stroke="#7d6261" vector-effect="non-scaling-stroke" d=" M 426.10 505.21 Q 427.25 504.18 426.72 506.97 Q 424.65 517.91 420.74 529.00 C 418.04 536.68 413.41 546.89 405.76 550.51 Q 398.36 554.01 391.72 549.93 A 0.77 0.77 0.0 0 0 390.57 550.40 Q 386.89 565.11 380.86 578.28 A 1.19 1.18 20.3 0 0 381.62 579.91 C 397.68 584.46 416.72 582.89 430.25 573.18 Q 447.12 561.07 451.02 541.19 C 452.78 532.21 451.89 521.71 449.84 512.42 A 2.97 2.96 65.3 0 1 450.94 509.43 C 471.49 493.89 481.41 469.03 475.39 443.88 C 472.10 430.14 464.17 418.68 453.36 409.82 A 2.28 2.28 0.0 0 1 452.74 407.07 Q 456.96 398.27 458.49 389.47 C 459.47 383.89 459.17 376.06 459.02 371.53 Q 458.83 365.85 456.52 358.76 Q 447.64 331.63 421.43 320.60 Q 412.82 316.98 403.85 316.68 A 1.47 1.46 -5.1 0 1 402.47 315.53 C 401.89 312.84 401.73 309.69 400.99 306.49 Q 398.02 293.67 389.56 284.29 C 375.52 268.71 355.85 263.65 335.52 269.94 A 2.04 2.02 63.8 0 1 333.27 269.16 Q 315.11 243.11 283.81 237.96 C 261.75 234.32 238.11 238.84 220.58 252.87 Q 211.17 260.40 205.39 269.59 A 2.24 2.22 25.8 0 1 202.74 270.50 C 184.61 264.01 164.12 267.76 150.44 281.39 Q 139.61 292.17 136.49 306.74 Q 135.62 310.82 135.01 314.70 A 2.63 2.62 -88.0 0 1 132.65 316.91 Q 104.29 319.38 88.10 342.85 Q 78.62 356.61 77.85 374.70 Q 77.10 392.28 84.85 407.37 A 2.00 2.00 0.0 0 1 84.32 409.85 C 70.70 420.74 61.53 436.40 60.56 454.02 Q 59.16 479.37 75.78 499.53 Q 77.96 502.17 83.91 507.21 C 86.64 509.53 87.86 511.48 87.58 514.86 Q 87.52 515.56 86.59 523.61 Q 85.24 535.38 88.72 546.84 C 93.66 563.11 108.09 576.20 124.47 580.60 C 134.47 583.28 145.47 582.74 155.80 580.08 A 1.07 1.06 69.6 0 0 156.48 578.58 Q 149.99 565.26 146.66 550.26 A 0.78 0.77 67.6 0 0 145.49 549.77 Q 139.18 553.73 132.67 551.21 C 125.13 548.28 119.70 537.76 117.16 530.62 Q 111.71 515.30 110.61 499.78 Q 110.46 497.66 111.50 491.34 A 1.44 1.43 79.1 0 1 112.16 490.36 Q 119.42 485.85 125.54 476.24 Q 130.59 468.30 132.91 458.62 Q 135.74 446.88 135.42 436.40 Q 135.34 433.87 137.50 433.33 C 146.31 431.10 154.83 426.90 161.62 420.46 Q 167.38 414.98 168.48 413.48 Q 178.46 399.82 181.21 382.98 Q 181.37 382.04 182.03 381.41" id="object-7"/>
    <path stroke="#b69580" vector-effect="non-scaling-stroke" d=" M 182.03 381.41 C 178.41 407.20 162.81 427.59 137.06 434.15 A 0.70 0.69 82.4 0 0 136.53 434.85 Q 136.92 449.36 132.40 463.38 Q 126.82 480.69 112.70 491.03 A 1.69 1.69 0.0 0 0 112.00 492.38 C 111.93 496.98 111.22 502.63 112.12 507.53 Q 114.32 519.49 117.73 529.51 C 120.06 536.36 123.51 543.49 129.21 548.22 Q 136.62 554.38 146.62 548.53 A 0.39 0.39 0.0 0 1 147.20 548.78 Q 150.43 564.88 158.14 580.00" id="object-8"/>
    <path stroke="#c59189" vector-effect="non-scaling-stroke" d=" M 426.10 505.21 L 425.95 493.33 A 3.45 3.42 -74.3 0 0 424.37 490.49 Q 421.52 488.64 419.69 486.31" id="object-9"/>
    <path stroke="#7d6261" vector-effect="non-scaling-stroke" d=" M 419.69 486.31 Q 412.83 477.13 410.51 473.49 Q 406.43 467.09 403.99 456.67 Q 401.70 446.87 401.54 435.47 A 2.79 2.79 0.0 0 0 399.48 432.82 C 390.60 430.43 381.97 426.27 375.47 419.84 Q 366.66 411.11 361.91 399.39 Q 358.46 390.87 357.33 382.87 A 1.79 1.79 0.0 0 0 355.13 381.38 C 347.61 383.22 338.90 384.72 330.97 384.24 Q 299.92 382.37 281.87 357.04 Q 279.48 353.70 274.87 343.34 C 273.19 339.58 272.29 334.69 270.89 330.26 A 0.21 0.21 0.0 0 0 270.48 330.27 Q 270.38 330.69 270.43 331.23" id="object-10"/>
    <path stroke="#c59189" vector-effect="non-scaling-stroke" d=" M 270.43 331.23 Q 270.33 329.48 269.66 328.64 A 0.27 0.27 0.0 0 0 269.19 328.74 L 267.16 336.64" id="object-11"/>
    <path stroke="#7d6261" vector-effect="non-scaling-stroke" d=" M 267.16 336.64 Q 266.31 336.44 265.84 338.26 C 262.17 352.64 252.75 365.19 240.79 373.52 Q 231.66 379.88 218.54 382.96 C 215.59 383.65 212.46 383.60 209.24 384.20 Q 206.05 384.79 202.25 384.54 Q 192.01 383.89 183.10 380.96 A 0.61 0.58 -53.0 0 0 182.57 381.05 L 182.31 381.24" id="object-12"/>
    <path stroke="#c59189" vector-effect="non-scaling-stroke" d=" M 182.31 381.24 L 182.03 381.41" id="object-13"/>
    <path stroke="#b69580" vector-effect="non-scaling-stroke" d=" M 270.43 331.23 C 275.45 353.43 286.97 370.18 308.29 379.73 C 323.03 386.34 340.23 386.43 355.60 381.92 A 0.73 0.72 -12.2 0 1 356.52 382.51 C 359.80 404.49 372.19 423.79 393.65 431.88 Q 394.91 432.36 399.99 433.94 A 0.68 0.68 0.0 0 1 400.46 434.59 Q 400.52 453.00 406.51 467.70 Q 410.70 477.97 419.69 486.31" id="object-14"/>
    <path stroke="#fcb89e" vector-effect="non-scaling-stroke" d=" M 343.72 622.23 Q 339.60 626.22 333.87 630.14 C 321.94 638.30 309.08 644.54 295.30 647.68 C 265.99 654.34 235.63 649.35 209.50 633.75 Q 200.98 628.67 195.49 623.52 A 0.35 0.35 0.0 0 0 194.90 623.76 L 194.85 624.54" id="object-15"/>
    <path stroke="#b69580" vector-effect="non-scaling-stroke" d=" M 182.31 381.24 C 207.23 389.83 234.21 383.51 252.36 364.35 Q 262.58 353.56 267.16 336.64" id="object-16"/>
    <path stroke="#b7a99a" vector-effect="non-scaling-stroke" d=" M 369.17 660.64 Q 363.49 674.16 351.74 685.74 C 331.55 705.64 303.98 715.92 275.80 717.28 C 233.40 719.32 191.94 701.25 170.74 663.78 A 1.60 1.59 33.9 0 1 170.55 662.82 Q 170.72 661.39 170.23 660.95" id="object-17"/>
    <path stroke="#e39387" vector-effect="non-scaling-stroke" d=" M 251.52 453.13 A 1.55 1.55 0.0 0 1 249.84 452.56 Q 235.72 433.47 213.17 429.10 Q 208.57 428.21 200.81 428.01 C 180.92 427.52 161.60 433.11 144.34 443.08 Q 142.14 444.35 141.84 447.13 Q 140.75 457.40 140.87 468.00 C 141.14 490.92 150.83 517.96 174.45 526.72 C 191.13 532.91 210.79 532.37 226.65 523.27 Q 248.65 510.63 253.68 484.24 Q 254.78 478.47 255.54 471.77 C 255.94 468.32 261.10 466.51 263.99 466.13 C 269.26 465.44 277.16 465.44 280.91 470.17 Q 281.88 471.40 282.12 474.51 C 283.02 486.21 285.52 498.34 292.94 508.07 Q 307.10 526.65 330.26 529.66 C 360.11 533.53 387.26 519.09 393.62 488.17 C 396.37 474.79 396.52 461.51 395.61 448.48 C 395.24 443.12 393.00 442.19 388.44 439.83 Q 373.15 431.92 357.09 428.65 Q 339.84 425.13 323.05 428.53 Q 299.74 433.24 286.26 452.06 A 2.43 2.41 -63.7 0 1 283.61 452.97 C 278.37 451.41 271.90 449.82 266.57 450.19 C 261.27 450.56 256.86 451.62 251.52 453.13" id="object-18"/>
    <path stroke="#e39387" vector-effect="non-scaling-stroke" d=" M 284.74 531.04 Q 282.82 531.56 278.74 533.98 Q 277.79 534.54 273.50 535.07 C 267.03 535.87 260.30 534.55 255.21 530.55 Q 252.01 528.03 252.07 524.06 Q 252.13 520.85 251.68 520.15 C 249.74 517.12 245.83 516.39 243.50 519.27 C 238.47 525.46 241.95 534.04 246.86 539.18 Q 250.11 542.57 256.00 544.66 Q 268.43 549.08 281.62 545.42 C 286.07 544.19 290.63 540.60 289.82 535.36 C 289.46 533.02 287.05 530.40 284.74 531.04" id="object-19"/>
    <path stroke="#e39387" vector-effect="non-scaling-stroke" d=" M 269.71 588.21 Q 289.51 588.26 307.22 578.75 C 313.12 575.58 328.71 564.22 319.74 557.08 C 318.07 555.75 315.11 555.76 313.71 557.22 Q 311.00 560.07 307.70 563.06 C 297.28 572.51 283.56 575.53 269.75 575.49 C 255.94 575.45 242.24 572.36 231.87 562.85 Q 228.58 559.84 225.89 556.97 C 224.50 555.51 221.54 555.48 219.86 556.80 C 210.85 563.89 226.38 575.34 232.26 578.54 Q 249.92 588.15 269.71 588.21" id="object-20"/>
    <path stroke="#e39387" vector-effect="non-scaling-stroke" d=" M 310.84 507.57 C 319.68 514.91 331.00 517.33 342.41 516.55 C 356.17 515.61 368.11 510.51 374.57 498.54 Q 381.44 485.82 381.03 470.23 C 380.84 462.97 379.49 455.92 374.18 451.29 Q 364.11 442.50 349.95 441.36 C 335.31 440.18 317.34 441.90 306.74 452.03 C 291.20 466.87 295.43 494.78 310.84 507.57" id="object-21"/>
    <path stroke="#e39387" vector-effect="non-scaling-stroke" d=" M 156.45 470.49 C 155.62 494.31 167.45 516.19 193.64 517.08 Q 202.91 517.40 210.25 515.98 C 231.14 511.93 245.54 484.44 238.63 465.56 C 231.14 445.08 208.37 440.61 189.02 442.17 C 178.76 442.99 166.53 447.16 160.14 455.63 C 157.14 459.62 156.63 465.43 156.45 470.49" id="object-22"/>
    <path stroke="#b69580" vector-effect="non-scaling-stroke" d=" M 337.91 474.99 C 343.53 475.10 347.90 478.01 350.56 482.94 Q 352.24 486.04 353.30 486.58 C 358.42 489.21 363.11 485.17 361.69 479.72 C 359.37 470.77 346.90 463.27 338.12 463.11 C 329.35 462.95 316.61 470.00 313.96 478.85 C 312.35 484.25 316.89 488.46 322.10 486.02 Q 323.18 485.51 324.97 482.47 C 327.81 477.65 332.28 474.89 337.91 474.99" id="object-23"/>
    <path stroke="#b69580" vector-effect="non-scaling-stroke" d=" M 198.98 475.24 C 204.64 475.15 209.14 477.94 211.98 482.80 Q 213.77 485.87 214.86 486.38 C 220.09 488.85 224.68 484.63 223.07 479.19 C 220.43 470.27 207.63 463.15 198.80 463.28 C 189.97 463.41 177.40 470.93 175.03 479.92 C 173.59 485.41 178.30 489.49 183.45 486.86 Q 184.53 486.31 186.22 483.20 C 188.91 478.25 193.32 475.33 198.98 475.24" id="object-24"/>
  </g>
  <path fill="#6e6657" d="M 293.208 437.358 C 296.074 431.566 298.148 425.449 299.427 419.007 C 299.469 418.768 299.75 418.664 299.943 418.813 C 304.144 422.113 309.297 420.65 312.235 416.544 C 313.549 414.703 314.482 413.157 315.034 411.905 C 317.519 406.286 319.31 400.223 320.408 393.718 C 320.852 393.316 320.971 393.66 320.766 394.748 C 319.967 399.015 318.811 403.31 317.301 407.635 C 315.736 412.127 313.053 418.1 308.619 420.218 C 305.759 421.582 303.047 421.47 300.481 419.879 C 300.225 419.719 299.888 419.858 299.815 420.153 C 298.393 425.89 296.517 431.326 294.187 436.462 C 294.013 436.847 294.221 437.299 294.627 437.416 C 303.936 440.078 314.971 439.159 322.813 433.479 C 329.331 428.757 333.344 422.519 334.851 414.766 C 335.87 409.513 335.354 403.371 334.167 397.936 C 334.025 397.276 334.273 396.595 334.804 396.187 C 346.715 387.096 352.464 372.554 348.975 357.842 C 347.068 349.805 342.472 343.101 336.207 337.918 C 335.734 337.529 335.585 336.865 335.847 336.309 C 337.478 332.877 338.589 329.445 339.18 326.013 C 339.748 322.749 339.574 318.169 339.487 315.519 C 339.414 313.304 338.931 310.814 338.038 308.049 C 334.607 297.469 327.828 290.028 317.701 285.726 C 314.374 284.314 310.978 283.55 307.512 283.433 C 307.123 283.419 306.794 283.141 306.712 282.761 C 306.376 281.187 306.283 279.344 305.854 277.473 C 304.706 272.472 302.498 268.144 299.23 264.486 C 291.092 255.372 279.692 252.412 267.909 256.091 C 267.425 256.241 266.899 256.056 266.605 255.635 C 259.588 245.476 250.033 239.392 237.939 237.384 C 225.153 235.255 211.452 237.899 201.292 246.106 C 197.656 249.042 194.722 252.303 192.488 255.887 C 192.168 256.406 191.528 256.628 190.952 256.419 C 180.444 252.622 168.569 254.817 160.64 262.79 C 156.456 266.994 153.761 271.937 152.555 277.618 C 152.219 279.21 151.933 280.762 151.697 282.275 C 151.588 282.973 151.025 283.506 150.33 283.568 C 139.372 284.531 130.765 289.589 124.509 298.742 C 120.847 304.108 118.866 310.319 118.568 317.374 C 118.279 324.229 119.631 330.6 122.626 336.485 C 122.879 336.98 122.751 337.587 122.319 337.935 C 114.424 344.306 109.11 353.466 108.547 363.774 C 108.006 373.659 110.947 382.533 117.369 390.396 C 118.211 391.425 119.781 392.923 122.081 394.888 C 123.663 396.246 124.37 397.386 124.208 399.363 C 124.185 399.636 123.993 401.342 123.634 404.482 C 123.113 409.072 123.524 413.601 124.869 418.071 C 127.731 427.588 136.095 435.246 145.588 437.82 C 151.384 439.388 157.76 439.071 163.747 437.515 C 164.122 437.417 164.312 436.993 164.141 436.638 C 161.633 431.443 159.736 425.921 158.45 420.071 C 158.38 419.763 158.031 419.616 157.772 419.785 C 155.333 421.329 152.856 421.61 150.341 420.627 C 145.971 418.913 142.824 412.759 141.352 408.583 C 139.246 402.608 137.98 396.595 137.556 390.542 C 137.498 389.715 137.669 388.07 138.072 385.605 C 138.112 385.367 138.252 385.158 138.454 385.032 C 141.259 383.272 143.844 380.519 146.208 376.772 C 148.16 373.675 149.584 370.239 150.481 366.464 C 151.574 361.886 152.059 357.554 151.935 353.466 C 151.904 352.48 152.306 351.881 153.141 351.67 C 158.246 350.366 163.184 347.909 167.12 344.142 C 169.345 342.005 170.671 340.644 171.096 340.058 C 174.952 334.732 177.411 328.785 178.474 322.217 C 178.536 321.851 178.694 321.544 178.95 321.298 C 176.851 336.385 167.81 348.313 152.885 352.15 C 152.701 352.194 152.573 352.366 152.578 352.56 C 152.729 358.218 151.931 363.781 150.185 369.249 C 148.029 375.999 144.223 381.391 138.767 385.423 C 138.515 385.607 138.365 385.9 138.361 386.213 C 138.321 388.904 137.909 392.209 138.431 395.076 C 139.281 399.74 140.364 404.026 141.683 407.934 C 143.033 411.941 145.032 416.111 148.336 418.878 C 151.199 421.281 154.562 421.341 158.426 419.059 C 158.559 418.98 158.729 419.055 158.762 419.206 C 160.01 425.485 162.124 431.572 165.103 437.469 C 152.845 441.727 139.179 439.112 130.543 429.092 C 123.955 421.448 121.515 412.416 123.222 401.996 C 123.567 399.913 123.806 398.545 123.942 397.89 C 124.019 397.515 123.875 397.13 123.571 396.906 C 103.465 381.797 102.062 353.419 122.006 337.409 C 122.201 337.248 122.262 336.973 122.15 336.748 C 115.96 324.299 116.343 310.003 123.929 298.438 C 129.818 289.458 139.973 283.24 150.724 282.995 C 150.946 282.989 151.129 282.812 151.147 282.585 C 151.929 272.207 157.348 262.579 166.575 257.578 C 174.307 253.381 182.57 252.833 191.364 255.934 C 191.617 256.025 191.899 255.913 192.03 255.67 C 194.447 251.155 199.136 246.685 203.146 243.936 C 210.164 239.123 218.226 236.541 227.332 236.191 C 232.993 235.972 238.047 236.489 242.494 237.741 C 252.966 240.681 261.176 246.615 267.127 255.542 C 267.235 255.711 267.445 255.783 267.637 255.717 C 287.11 249.194 305.391 262.339 307.094 282.544 C 307.117 282.795 307.321 282.989 307.57 283 C 316.141 283.357 324.523 287.423 330.307 293.822 C 337.451 301.72 340.747 310.984 340.194 321.615 C 339.912 327.094 338.577 332.15 336.189 336.782 C 336.072 337.01 336.133 337.29 336.334 337.45 C 344.773 343.937 350.047 354.168 350.458 364.891 C 350.945 377.661 345.144 389.056 334.955 396.761 C 334.71 396.944 334.598 397.258 334.671 397.556 C 336.676 406.026 336.717 415.438 332.474 423.218 C 325.409 436.158 311.853 441.47 297.589 438.65 C 295.754 438.287 294.294 437.856 293.208 437.358 Z" style=""/>
  <path fill="#8c5e6a" d="M 320.408 393.718 L 320.321 386.769 C 320.309 386.092 319.966 385.469 319.405 385.108 C 318.304 384.386 317.399 383.571 316.692 382.662 C 314.042 379.082 312.269 376.583 311.372 375.163 C 309.795 372.667 308.536 369.387 307.593 365.324 C 306.708 361.502 306.235 357.368 306.173 352.922 C 306.162 352.194 305.675 351.562 304.979 351.372 C 299.832 349.974 294.831 347.541 291.063 343.779 C 287.66 340.375 285.039 336.387 283.204 331.816 C 281.871 328.494 280.986 325.272 280.55 322.153 C 280.465 321.538 279.872 321.133 279.274 321.281 C 274.916 322.358 269.868 323.235 265.272 322.954 C 253.275 322.225 243.789 316.921 236.815 307.043 C 235.891 305.74 234.539 303.069 232.757 299.029 C 231.784 296.829 231.262 293.969 230.451 291.377 C 230.428 291.285 230.315 291.252 230.248 291.318 C 230.23 291.335 230.218 291.358 230.213 291.383 C 230.175 291.547 230.165 291.734 230.184 291.945 C 230.146 291.262 229.997 290.757 229.738 290.43 C 229.662 290.335 229.513 290.359 229.47 290.473 C 229.468 290.478 229.467 290.483 229.465 290.488 L 228.289 295.109 C 227.96 295.032 227.706 295.347 227.524 296.057 C 225.397 304.469 219.937 311.81 213.005 316.683 C 209.477 319.163 205.179 321.004 200.11 322.206 C 198.4 322.609 196.586 322.579 194.719 322.931 C 193.487 323.161 192.136 323.227 190.668 323.13 C 186.711 322.876 183.012 322.178 179.569 321.036 C 179.467 321.002 179.353 321.022 179.262 321.088 L 179.112 321.199 L 178.95 321.298 C 178.694 321.544 178.536 321.851 178.474 322.217 C 177.411 328.785 174.952 334.732 171.096 340.058 C 170.671 340.644 169.345 342.005 167.12 344.142 C 163.184 347.909 158.246 350.366 153.141 351.67 C 152.306 351.881 151.904 352.48 151.935 353.466 C 152.059 357.554 151.574 361.886 150.481 366.464 C 149.584 370.239 148.16 373.675 146.208 376.772 C 143.844 380.519 141.259 383.272 138.454 385.032 C 138.252 385.158 138.112 385.367 138.072 385.605 C 137.669 388.07 137.498 389.715 137.556 390.542 C 137.98 396.595 139.246 402.608 141.352 408.583 C 142.824 412.759 145.971 418.913 150.341 420.627 C 152.856 421.61 155.333 421.329 157.772 419.785 C 158.031 419.616 158.38 419.763 158.45 420.071 C 159.736 425.921 161.633 431.443 164.141 436.638 C 164.312 436.993 164.122 437.417 163.747 437.515 C 157.76 439.071 151.384 439.388 145.588 437.82 C 136.095 435.246 127.731 427.588 124.869 418.071 C 123.524 413.601 123.113 409.072 123.634 404.482 C 123.993 401.342 124.185 399.636 124.208 399.363 C 124.37 397.386 123.663 396.246 122.081 394.888 C 119.781 392.923 118.211 391.425 117.369 390.396 C 110.947 382.533 108.006 373.659 108.547 363.774 C 109.11 353.466 114.424 344.306 122.319 337.935 C 122.751 337.587 122.879 336.98 122.626 336.485 C 119.631 330.6 118.279 324.229 118.568 317.374 C 118.866 310.319 120.847 304.108 124.509 298.742 C 130.765 289.589 139.372 284.531 150.33 283.568 C 151.025 283.506 151.588 282.973 151.697 282.275 C 151.933 280.762 152.219 279.21 152.555 277.618 C 153.761 271.937 156.456 266.994 160.64 262.79 C 168.569 254.817 180.444 252.622 190.952 256.419 C 191.528 256.628 192.168 256.406 192.488 255.887 C 194.722 252.303 197.656 249.042 201.292 246.106 C 211.452 237.899 225.153 235.255 237.939 237.384 C 250.033 239.392 259.588 245.476 266.605 255.635 C 266.899 256.056 267.425 256.241 267.909 256.091 C 279.692 252.412 291.092 255.372 299.23 264.486 C 302.498 268.144 304.706 272.472 305.854 277.473 C 306.283 279.344 306.376 281.187 306.712 282.761 C 306.794 283.141 307.123 283.419 307.512 283.433 C 310.978 283.55 314.374 284.314 317.701 285.726 C 327.828 290.028 334.607 297.469 338.038 308.049 C 338.931 310.814 339.414 313.304 339.487 315.519 C 339.574 318.169 339.748 322.749 339.18 326.013 C 338.589 329.445 337.478 332.877 335.847 336.309 C 335.585 336.865 335.734 337.529 336.207 337.918 C 342.472 343.101 347.068 349.805 348.975 357.842 C 352.464 372.554 346.715 387.096 334.804 396.187 C 334.273 396.595 334.025 397.276 334.167 397.936 C 335.354 403.371 335.87 409.513 334.851 414.766 C 333.344 422.519 329.331 428.757 322.813 433.479 C 314.971 439.159 303.936 440.078 294.627 437.416 C 294.221 437.299 294.013 436.847 294.187 436.462 C 296.517 431.326 298.393 425.89 299.815 420.153 C 299.888 419.858 300.225 419.719 300.481 419.879 C 303.047 421.47 305.759 421.582 308.619 420.218 C 313.053 418.1 315.736 412.127 317.301 407.635 C 318.811 403.31 319.967 399.015 320.766 394.748 C 320.971 393.66 320.852 393.316 320.408 393.718 Z" style=""/>
  <path fill="#fec4a8" d="M 230.184 291.945 C 233.093 304.931 239.77 314.73 252.127 320.316 C 260.67 324.183 270.639 324.235 279.547 321.597 C 279.794 321.526 280.045 321.689 280.081 321.942 C 281.982 334.8 289.162 346.09 301.6 350.822 C 302.087 351.01 303.312 351.411 305.275 352.028 C 305.438 352.08 305.547 352.235 305.547 352.408 C 305.57 359.587 306.739 366.043 309.053 371.776 C 310.672 375.781 313.219 379.41 316.692 382.662 C 317.399 383.571 318.304 384.386 319.405 385.108 C 319.966 385.469 320.309 386.092 320.321 386.769 L 320.408 393.718 C 319.31 400.223 317.519 406.286 315.034 411.905 C 314.482 413.157 313.549 414.703 312.235 416.544 C 309.297 420.65 304.144 422.113 299.943 418.813 C 299.75 418.664 299.469 418.768 299.427 419.007 C 298.148 425.449 296.074 431.566 293.208 437.358 C 292.825 437.583 292.505 438.009 292.246 438.632 C 291.929 439.393 291.707 439.881 291.579 440.095 C 286.575 448.648 280.27 456.007 272.662 462.172 C 271.07 463.728 269.167 465.271 266.952 466.799 C 260.039 471.573 252.585 475.223 244.598 477.059 C 227.611 480.956 210.014 478.036 194.87 468.911 C 191.579 466.93 188.871 464.935 186.75 462.927 C 186.637 462.818 186.45 462.875 186.413 463.028 C 186.41 463.041 186.409 463.054 186.408 463.067 L 186.379 463.523 C 186.414 463.129 186.275 462.806 185.962 462.552 C 177.369 455.642 170.416 447.281 165.103 437.469 C 162.124 431.572 160.01 425.485 158.762 419.206 C 158.729 419.055 158.559 418.98 158.426 419.059 C 154.562 421.341 151.199 421.281 148.336 418.878 C 145.032 416.111 143.033 411.941 141.683 407.934 C 140.364 404.026 139.281 399.74 138.431 395.076 C 137.909 392.209 138.321 388.904 138.361 386.213 C 138.365 385.9 138.515 385.607 138.767 385.423 C 144.223 381.391 148.029 375.999 150.185 369.249 C 151.931 363.781 152.729 358.218 152.578 352.56 C 152.573 352.366 152.701 352.194 152.885 352.15 C 167.81 348.313 176.851 336.385 178.95 321.298 L 179.112 321.199 C 193.554 326.224 209.192 322.527 219.711 311.319 C 223.66 307.111 226.52 301.708 228.289 295.109 L 229.465 290.488 C 229.497 290.371 229.643 290.331 229.727 290.418 C 229.731 290.421 229.735 290.425 229.738 290.43 C 229.997 290.757 230.146 291.262 230.184 291.945 Z M 219.224 363.253 C 218.863 363.359 218.473 363.225 218.25 362.919 C 212.795 355.475 205.71 350.9 196.998 349.196 C 195.22 348.849 192.832 348.636 189.834 348.559 C 178.306 348.272 167.108 351.541 157.105 357.374 C 156.255 357.869 155.771 358.659 155.656 359.743 C 155.235 363.748 155.048 367.818 155.093 371.951 C 155.25 385.359 160.867 401.177 174.556 406.301 C 184.224 409.922 195.618 409.606 204.81 404.283 C 213.311 399.353 218.533 391.743 220.476 381.452 C 220.901 379.201 221.261 376.769 221.554 374.156 C 221.786 372.139 224.777 371.08 226.452 370.857 C 229.506 370.454 234.085 370.454 236.258 373.221 C 236.633 373.701 236.867 374.546 236.96 375.76 C 237.481 382.604 238.93 389.699 243.23 395.391 C 248.702 402.637 255.912 406.847 264.86 408.021 C 282.161 410.284 297.896 401.838 301.582 383.751 C 303.176 375.924 303.263 368.155 302.736 360.533 C 302.522 357.397 301.223 356.853 298.58 355.473 C 292.672 352.388 286.616 350.208 280.41 348.932 C 273.745 347.56 267.169 347.537 260.682 348.863 C 251.675 350.699 244.567 355.287 239.359 362.627 C 239.008 363.117 238.392 363.33 237.823 363.16 C 234.786 362.247 231.036 361.316 227.947 361.533 C 224.875 361.75 222.319 362.369 219.224 363.253 Z M 238.478 408.828 C 237.736 409.031 236.577 409.604 235.001 410.548 C 234.633 410.767 233.621 410.979 231.964 411.185 C 228.213 411.654 224.313 410.881 221.363 408.541 C 220.126 407.559 219.52 406.294 219.543 404.745 C 219.566 403.493 219.491 402.731 219.317 402.458 C 218.192 400.685 215.926 400.258 214.576 401.943 C 211.661 405.564 213.678 410.583 216.524 413.59 C 217.779 414.912 219.545 415.98 221.821 416.796 C 226.624 418.52 231.573 418.668 236.67 417.24 C 239.248 416.521 241.892 414.42 241.422 411.355 C 241.213 409.987 239.817 408.454 238.478 408.828 Z M 229.767 442.271 C 237.417 442.291 244.664 440.446 251.507 436.737 C 254.927 434.883 263.962 428.238 258.763 424.061 C 257.795 423.283 256.08 423.289 255.268 424.143 C 254.221 425.254 253.06 426.393 251.785 427.559 C 245.746 433.087 237.794 434.854 229.79 434.83 C 221.786 434.807 213.845 432.999 207.835 427.436 C 206.564 426.262 205.409 425.116 204.369 423.997 C 203.564 423.142 201.849 423.125 200.875 423.897 C 195.653 428.045 204.653 434.742 208.062 436.614 C 214.886 440.362 222.12 442.248 229.767 442.271 Z" style=""/>
  <path fill="#6e6657" d="M 316.692 382.662 C 313.219 379.41 310.672 375.781 309.053 371.776 C 306.739 366.043 305.57 359.587 305.547 352.408 C 305.547 352.235 305.438 352.08 305.275 352.028 C 303.312 351.411 302.087 351.01 301.6 350.822 C 289.162 346.09 281.982 334.8 280.081 321.942 C 280.045 321.689 279.794 321.526 279.547 321.597 C 270.639 324.235 260.67 324.183 252.127 320.316 C 239.77 314.73 233.093 304.931 230.184 291.945 C 230.165 291.734 230.175 291.547 230.213 291.383 C 230.231 291.29 230.342 291.252 230.412 291.314 C 230.431 291.331 230.445 291.352 230.451 291.377 C 231.262 293.969 231.784 296.829 232.757 299.029 C 234.539 303.069 235.891 305.74 236.815 307.043 C 243.789 316.921 253.275 322.225 265.272 322.954 C 269.868 323.235 274.916 322.358 279.274 321.281 C 279.872 321.133 280.465 321.538 280.55 322.153 C 280.986 325.272 281.871 328.494 283.204 331.816 C 285.039 336.387 287.66 340.375 291.063 343.779 C 294.831 347.541 299.832 349.974 304.979 351.372 C 305.675 351.562 306.162 352.194 306.173 352.922 C 306.235 357.368 306.708 361.502 307.593 365.324 C 308.536 369.387 309.795 372.667 311.372 375.163 C 312.269 376.583 314.042 379.082 316.692 382.662 Z" style=""/>
  <path fill="#6e6657" d="M 228.289 295.109 C 226.52 301.708 223.66 307.111 219.711 311.319 C 209.192 322.527 193.554 326.224 179.112 321.199 L 179.262 321.088 C 179.353 321.022 179.467 321.002 179.569 321.036 C 183.012 322.178 186.711 322.876 190.668 323.13 C 192.136 323.227 193.487 323.161 194.719 322.931 C 196.586 322.579 198.4 322.609 200.11 322.206 C 205.179 321.004 209.477 319.163 213.005 316.683 C 219.937 311.81 225.397 304.469 227.524 296.057 C 227.706 295.347 227.96 295.032 228.289 295.109 Z" style=""/>
  <path fill="#c86265" d="M 219.224 363.253 C 222.319 362.369 224.875 361.75 227.947 361.533 C 231.036 361.316 234.786 362.247 237.823 363.16 C 238.392 363.33 239.008 363.117 239.359 362.627 C 244.567 355.287 251.675 350.699 260.682 348.863 C 267.169 347.537 273.745 347.56 280.41 348.932 C 286.616 350.208 292.672 352.388 298.58 355.473 C 301.223 356.853 302.522 357.397 302.736 360.533 C 303.263 368.155 303.176 375.924 301.582 383.751 C 297.896 401.838 282.161 410.284 264.86 408.021 C 255.912 406.847 248.702 402.637 243.23 395.391 C 238.93 389.699 237.481 382.604 236.96 375.76 C 236.867 374.546 236.633 373.701 236.258 373.221 C 234.085 370.454 229.506 370.454 226.452 370.857 C 224.777 371.08 221.786 372.139 221.554 374.156 C 221.261 376.769 220.901 379.201 220.476 381.452 C 218.533 391.743 213.311 399.353 204.81 404.283 C 195.618 409.606 184.224 409.922 174.556 406.301 C 160.867 401.177 155.25 385.359 155.093 371.951 C 155.048 367.818 155.235 363.748 155.656 359.743 C 155.771 358.659 156.255 357.869 157.105 357.374 C 167.108 351.541 178.306 348.272 189.834 348.559 C 192.832 348.636 195.22 348.849 196.998 349.196 C 205.71 350.9 212.795 355.475 218.25 362.919 C 218.473 363.225 218.863 363.359 219.224 363.253 Z M 253.605 395.099 C 258.729 399.393 265.289 400.808 271.903 400.352 C 279.877 399.802 286.798 396.819 290.542 389.816 C 293.196 384.856 294.444 379.336 294.286 373.256 C 294.176 369.009 293.393 364.885 290.316 362.176 C 286.424 358.748 281.744 356.812 276.272 356.368 C 267.787 355.677 257.373 356.684 251.228 362.61 C 242.222 371.291 244.673 387.617 253.605 395.099 Z M 164.124 373.408 C 163.642 387.342 170.499 400.141 185.678 400.662 C 189.26 400.787 192.469 400.572 195.305 400.019 C 207.412 397.649 215.759 381.568 211.753 370.524 C 207.412 358.544 194.216 355.929 183.001 356.842 C 177.054 357.321 169.966 359.76 166.263 364.716 C 164.524 367.049 164.228 370.448 164.124 373.408 Z" style=""/>
  <path fill="#fec4a8" d="M 253.605 395.099 C 244.673 387.617 242.222 371.291 251.228 362.61 C 257.373 356.684 267.787 355.677 276.272 356.368 C 281.744 356.812 286.424 358.748 290.316 362.176 C 293.393 364.885 294.176 369.009 294.286 373.256 C 294.444 379.336 293.196 384.856 290.542 389.816 C 286.798 396.819 279.877 399.802 271.903 400.352 C 265.289 400.808 258.729 399.393 253.605 395.099 Z M 269.295 376.041 C 272.551 376.105 275.085 377.807 276.626 380.691 C 277.275 381.9 277.805 382.609 278.214 382.82 C 281.182 384.359 283.899 381.995 283.076 378.807 C 281.732 373.572 274.505 369.185 269.416 369.091 C 264.333 368.997 256.949 373.121 255.414 378.298 C 254.48 381.457 257.111 383.92 260.131 382.492 C 260.548 382.294 261.103 381.601 261.794 380.416 C 263.441 377.597 266.031 375.982 269.295 376.041 Z" style=""/>
  <path fill="#fec4a8" d="M 185.678 400.662 C 170.499 400.141 163.642 387.342 164.124 373.408 C 164.228 370.448 164.524 367.049 166.263 364.716 C 169.966 359.76 177.054 357.321 183.001 356.842 C 194.216 355.929 207.412 358.544 211.753 370.524 C 215.759 381.568 207.412 397.649 195.305 400.019 C 192.469 400.572 189.26 400.787 185.678 400.662 Z M 188.773 376.186 C 192.053 376.134 194.661 377.766 196.308 380.609 C 196.999 381.806 197.556 382.505 197.977 382.703 C 201.008 384.149 203.668 381.68 202.735 378.498 C 201.205 373.28 193.787 369.114 188.669 369.19 C 183.551 369.266 176.266 373.666 174.892 378.924 C 174.058 382.136 176.787 384.522 179.772 382.984 C 180.189 382.77 180.725 382.056 181.378 380.843 C 182.937 377.947 185.493 376.239 188.773 376.186 Z" style=""/>
  <path fill="#6e6657" d="M 188.669 369.19 C 193.787 369.114 201.205 373.28 202.735 378.498 C 203.668 381.68 201.008 384.149 197.977 382.703 C 197.556 382.505 196.999 381.806 196.308 380.609 C 194.661 377.766 192.053 376.134 188.773 376.186 C 185.493 376.239 182.937 377.947 181.378 380.843 C 180.725 382.056 180.189 382.77 179.772 382.984 C 176.787 384.522 174.058 382.136 174.892 378.924 C 176.266 373.666 183.551 369.266 188.669 369.19 Z" style=""/>
  <path fill="#6e6657" d="M 269.295 376.041 C 266.031 375.982 263.441 377.597 261.794 380.416 C 261.103 381.601 260.548 382.294 260.131 382.492 C 257.111 383.92 254.48 381.457 255.414 378.298 C 256.949 373.121 264.333 368.997 269.416 369.091 C 274.505 369.185 281.732 373.572 283.076 378.807 C 283.899 381.995 281.182 384.359 278.214 382.82 C 277.805 382.609 277.275 381.9 276.626 380.691 C 275.085 377.807 272.551 376.105 269.295 376.041 Z" style=""/>
  <path fill="#c86265" d="M 238.478 408.828 C 239.817 408.454 241.213 409.987 241.422 411.355 C 241.892 414.42 239.248 416.521 236.67 417.24 C 231.573 418.668 226.624 418.52 221.821 416.796 C 219.545 415.98 217.779 414.912 216.524 413.59 C 213.678 410.583 211.661 405.564 214.576 401.943 C 215.926 400.258 218.192 400.685 219.317 402.458 C 219.491 402.731 219.566 403.493 219.543 404.745 C 219.52 406.294 220.126 407.559 221.363 408.541 C 224.313 410.881 228.213 411.654 231.964 411.185 C 233.621 410.979 234.633 410.767 235.001 410.548 C 236.577 409.604 237.736 409.031 238.478 408.828 Z" style=""/>
  <path fill="#c86265" d="M 229.79 434.83 C 237.794 434.854 245.746 433.087 251.785 427.559 C 253.06 426.393 254.221 425.254 255.268 424.143 C 256.08 423.289 257.795 423.283 258.763 424.061 C 263.962 428.238 254.927 434.883 251.507 436.737 C 244.664 440.446 237.417 442.291 229.767 442.271 C 222.12 442.248 214.886 440.362 208.062 436.614 C 204.653 434.742 195.653 428.045 200.875 423.897 C 201.849 423.125 203.564 423.142 204.369 423.997 C 205.409 425.116 206.564 426.262 207.835 427.436 C 213.845 432.999 221.786 434.807 229.79 434.83 Z" style=""/>
  <path fill="#f9ac94" d="M 272.662 462.172 C 273.013 465.222 273.529 467.979 274.209 470.443 C 275.843 476.372 279.396 480.669 284.868 483.337 C 285.749 483.762 286.597 484.197 287.412 484.641 C 285.218 489.913 281.85 494.807 277.31 499.324 C 265.608 510.964 249.629 516.978 233.296 517.774 C 208.722 518.967 184.693 508.396 172.406 486.478 C 172.312 486.306 172.273 486.11 172.296 485.916 C 172.361 485.358 172.299 484.994 172.11 484.822 C 178.284 482.171 182.444 477.794 184.589 471.695 C 185.354 469.523 185.95 466.799 186.379 463.523 L 186.408 463.067 C 186.415 462.91 186.588 462.818 186.72 462.903 C 186.73 462.91 186.741 462.918 186.75 462.927 C 188.871 464.935 191.579 466.93 194.87 468.911 C 210.014 478.036 227.611 480.956 244.598 477.059 C 252.585 475.223 260.039 471.573 266.952 466.799 C 269.167 465.271 271.07 463.728 272.662 462.172 Z" style=""/>
  <path fill="#75a5a0" d="M 287.412 484.641 C 299.989 490.081 313.075 495.076 324.285 502.822 C 334.41 509.812 342.617 520.09 345.775 532.158 C 346.732 535.826 347.369 539.857 343.538 542.068 C 341.166 543.44 339.025 544.49 337.117 545.215 C 328.87 548.345 320.315 550.234 311.436 551.878 C 298.078 554.351 283.854 556.125 268.761 557.201 C 235.049 559.611 201.035 558.716 166.72 554.516 C 154.302 552.999 142.47 550.798 131.226 547.912 C 125.721 546.502 119.878 544.478 115.097 541.383 C 111.533 539.078 112.541 534.703 113.526 531.14 C 118.296 513.895 132.084 502.676 147.565 495.446 C 153.863 492.501 160.287 489.775 166.836 487.267 C 168.627 486.583 170.372 485.682 172.11 484.822 C 172.299 484.994 172.361 485.358 172.296 485.916 C 172.273 486.11 172.312 486.306 172.406 486.478 C 184.693 508.396 208.722 518.967 233.296 517.774 C 249.629 516.978 265.608 510.964 277.31 499.324 C 281.85 494.807 285.218 489.913 287.412 484.641 Z" style=""/>
</svg>