<?xml version="1.0" encoding="utf-8"?>
<svg xmlns="http://www.w3.org/2000/svg" version="1.1" viewBox="0.00 0.00 512.00 1024.00">
  <g stroke-width="2.00" fill="none" stroke-linecap="butt">
    <path stroke="#fedecb" vector-effect="non-scaling-stroke" d=" M 158.14 580.00 Q 171.89 605.16 194.13 622.88 Q 194.94 623.53 194.85 624.54"/>
    <path stroke="#fcd2c1" vector-effect="non-scaling-stroke" d=" M 194.85 624.54 Q 193.74 632.94 191.76 638.51 Q 186.21 654.15 170.23 660.95"/>
    <path stroke="#bacec7" vector-effect="non-scaling-stroke" d=" M 170.23 660.95 C 167.23 662.42 164.22 663.96 161.13 665.13 Q 144.18 671.56 127.88 679.11 C 101.17 691.47 77.38 710.65 69.15 740.13 C 67.45 746.22 65.71 753.70 71.86 757.64 C 80.11 762.93 90.19 766.39 99.69 768.80 Q 128.79 776.20 160.93 780.09 Q 249.74 790.86 336.99 784.68 Q 376.05 781.92 410.62 775.58 C 425.94 772.77 440.70 769.54 454.93 764.19 Q 459.87 762.33 466.01 758.81 C 472.62 755.03 471.52 748.14 469.87 741.87 C 464.42 721.24 450.26 703.67 432.79 691.72 C 413.45 678.48 390.87 669.94 369.17 660.64"/>
    <path stroke="#fcd2c1" vector-effect="non-scaling-stroke" d=" M 369.17 660.64 Q 367.06 659.50 364.78 658.41 Q 350.62 651.57 346.39 636.37 Q 344.63 630.05 343.72 622.23"/>
    <path stroke="#fedecb" vector-effect="non-scaling-stroke" d=" M 343.72 622.23 Q 363.41 606.42 376.36 584.49 Q 376.69 583.94 377.51 581.99 Q 378.18 580.39 379.17 579.81"/>
    <path stroke="#b6afa2" vector-effect="non-scaling-stroke" d=" M 379.17 579.81 Q 381.98 581.09 386.73 582.02 C 411.34 586.84 434.73 577.76 446.92 555.64 C 454.24 542.34 454.17 526.25 450.71 511.77 A 1.31 1.30 -25.4 0 1 451.20 510.41 C 468.78 497.24 478.79 477.76 477.95 455.93 C 477.24 437.60 468.14 420.11 453.58 409.02 A 0.92 0.91 32.9 0 1 453.33 407.88 Q 459.51 396.00 460.24 381.95 Q 461.67 354.69 443.18 334.44 C 433.20 323.50 418.74 316.55 403.95 315.94 A 0.86 0.86 0.0 0 1 403.13 315.16 C 400.19 280.62 368.65 258.15 335.05 269.30 A 0.76 0.75 -25.9 0 1 334.17 269.00 Q 318.77 246.11 291.67 238.57 Q 280.16 235.36 265.51 235.92 Q 241.94 236.82 223.78 249.16 C 216.86 253.86 208.77 261.50 204.60 269.22 A 0.96 0.94 -65.9 0 1 203.45 269.67 Q 180.69 261.72 160.68 272.48 C 144.76 281.03 135.41 297.49 134.06 315.23 A 0.76 0.75 -88.7 0 1 133.33 315.93 C 114.78 316.35 97.26 326.98 87.10 342.33 C 74.01 362.10 73.35 386.54 84.03 407.82 A 0.93 0.92 -32.9 0 1 83.78 408.95 C 49.37 436.32 51.79 484.83 86.48 510.66 A 1.66 1.65 -66.1 0 1 87.12 512.34 Q 86.77 514.02 85.88 519.36 Q 81.46 546.08 98.51 565.68 C 113.41 582.81 136.99 587.28 158.14 580.00"/>
    <path stroke="#b69580" vector-effect="non-scaling-stroke" d=" M 379.17 579.81 Q 386.59 564.96 389.90 548.44 A 0.56 0.55 24.4 0 1 390.79 548.11 C 398.04 553.75 406.93 551.25 412.00 544.23 Q 415.40 539.51 416.83 536.30 Q 423.26 521.89 426.10 505.21"/>
    <path stroke="#7d6261" vector-effect="non-scaling-stroke" d=" M 426.10 505.21 Q 427.25 504.18 426.72 506.97 Q 424.65 517.91 420.74 529.00 C 418.04 536.68 413.41 546.89 405.76 550.51 Q 398.36 554.01 391.72 549.93 A 0.77 0.77 0.0 0 0 390.57 550.40 Q 386.89 565.11 380.86 578.28 A 1.19 1.18 20.3 0 0 381.62 579.91 C 397.68 584.46 416.72 582.89 430.25 573.18 Q 447.12 561.07 451.02 541.19 C 452.78 532.21 451.89 521.71 449.84 512.42 A 2.97 2.96 65.3 0 1 450.94 509.43 C 471.49 493.89 481.41 469.03 475.39 443.88 C 472.10 430.14 464.17 418.68 453.36 409.82 A 2.28 2.28 0.0 0 1 452.74 407.07 Q 456.96 398.27 458.49 389.47 C 459.47 383.89 459.17 376.06 459.02 371.53 Q 458.83 365.85 456.52 358.76 Q 447.64 331.63 421.43 320.60 Q 412.82 316.98 403.85 316.68 A 1.47 1.46 -5.1 0 1 402.47 315.53 C 401.89 312.84 401.73 309.69 400.99 306.49 Q 398.02 293.67 389.56 284.29 C 375.52 268.71 355.85 263.65 335.52 269.94 A 2.04 2.02 63.8 0 1 333.27 269.16 Q 315.11 243.11 283.81 237.96 C 261.75 234.32 238.11 238.84 220.58 252.87 Q 211.17 260.40 205.39 269.59 A 2.24 2.22 25.8 0 1 202.74 270.50 C 184.61 264.01 164.12 267.76 150.44 281.39 Q 139.61 292.17 136.49 306.74 Q 135.62 310.82 135.01 314.70 A 2.63 2.62 -88.0 0 1 132.65 316.91 Q 104.29 319.38 88.10 342.85 Q 78.62 356.61 77.85 374.70 Q 77.10 392.28 84.85 407.37 A 2.00 2.00 0.0 0 1 84.32 409.85 C 70.70 420.74 61.53 436.40 60.56 454.02 Q 59.16 479.37 75.78 499.53 Q 77.96 502.17 83.91 507.21 C 86.64 509.53 87.86 511.48 87.58 514.86 Q 87.52 515.56 86.59 523.61 Q 85.24 535.38 88.72 546.84 C 93.66 563.11 108.09 576.20 124.47 580.60 C 134.47 583.28 145.47 582.74 155.80 580.08 A 1.07 1.06 69.6 0 0 156.48 578.58 Q 149.99 565.26 146.66 550.26 A 0.78 0.77 67.6 0 0 145.49 549.77 Q 139.18 553.73 132.67 551.21 C 125.13 548.28 119.70 537.76 117.16 530.62 Q 111.71 515.30 110.61 499.78 Q 110.46 497.66 111.50 491.34 A 1.44 1.43 79.1 0 1 112.16 490.36 Q 119.42 485.85 125.54 476.24 Q 130.59 468.30 132.91 458.62 Q 135.74 446.88 135.42 436.40 Q 135.34 433.87 137.50 433.33 C 146.31 431.10 154.83 426.90 161.62 420.46 Q 167.38 414.98 168.48 413.48 Q 178.46 399.82 181.21 382.98 Q 181.37 382.04 182.03 381.41"/>
    <path stroke="#b69580" vector-effect="non-scaling-stroke" d=" M 182.03 381.41 C 178.41 407.20 162.81 427.59 137.06 434.15 A 0.70 0.69 82.4 0 0 136.53 434.85 Q 136.92 449.36 132.40 463.38 Q 126.82 480.69 112.70 491.03 A 1.69 1.69 0.0 0 0 112.00 492.38 C 111.93 496.98 111.22 502.63 112.12 507.53 Q 114.32 519.49 117.73 529.51 C 120.06 536.36 123.51 543.49 129.21 548.22 Q 136.62 554.38 146.62 548.53 A 0.39 0.39 0.0 0 1 147.20 548.78 Q 150.43 564.88 158.14 580.00"/>
    <path stroke="#c59189" vector-effect="non-scaling-stroke" d=" M 426.10 505.21 L 425.95 493.33 A 3.45 3.42 -74.3 0 0 424.37 490.49 Q 421.52 488.64 419.69 486.31"/>
    <path stroke="#7d6261" vector-effect="non-scaling-stroke" d=" M 419.69 486.31 Q 412.83 477.13 410.51 473.49 Q 406.43 467.09 403.99 456.67 Q 401.70 446.87 401.54 435.47 A 2.79 2.79 0.0 0 0 399.48 432.82 C 390.60 430.43 381.97 426.27 375.47 419.84 Q 366.66 411.11 361.91 399.39 Q 358.46 390.87 357.33 382.87 A 1.79 1.79 0.0 0 0 355.13 381.38 C 347.61 383.22 338.90 384.72 330.97 384.24 Q 299.92 382.37 281.87 357.04 Q 279.48 353.70 274.87 343.34 C 273.19 339.58 272.29 334.69 270.89 330.26 A 0.21 0.21 0.0 0 0 270.48 330.27 Q 270.38 330.69 270.43 331.23"/>
    <path stroke="#c59189" vector-effect="non-scaling-stroke" d=" M 270.43 331.23 Q 270.33 329.48 269.66 328.64 A 0.27 0.27 0.0 0 0 269.19 328.74 L 267.16 336.64"/>
    <path stroke="#7d6261" vector-effect="non-scaling-stroke" d=" M 267.16 336.64 Q 266.31 336.44 265.84 338.26 C 262.17 352.64 252.75 365.19 240.79 373.52 Q 231.66 379.88 218.54 382.96 C 215.59 383.65 212.46 383.60 209.24 384.20 Q 206.05 384.79 202.25 384.54 Q 192.01 383.89 183.10 380.96 A 0.61 0.58 -53.0 0 0 182.57 381.05 L 182.31 381.24"/>
    <path stroke="#c59189" vector-effect="non-scaling-stroke" d=" M 182.31 381.24 L 182.03 381.41"/>
    <path stroke="#b69580" vector-effect="non-scaling-stroke" d=" M 270.43 331.23 C 275.45 353.43 286.97 370.18 308.29 379.73 C 323.03 386.34 340.23 386.43 355.60 381.92 A 0.73 0.72 -12.2 0 1 356.52 382.51 C 359.80 404.49 372.19 423.79 393.65 431.88 Q 394.91 432.36 399.99 433.94 A 0.68 0.68 0.0 0 1 400.46 434.59 Q 400.52 453.00 406.51 467.70 Q 410.70 477.97 419.69 486.31"/>
    <path stroke="#fcb89e" vector-effect="non-scaling-stroke" d=" M 343.72 622.23 Q 339.60 626.22 333.87 630.14 C 321.94 638.30 309.08 644.54 295.30 647.68 C 265.99 654.34 235.63 649.35 209.50 633.75 Q 200.98 628.67 195.49 623.52 A 0.35 0.35 0.0 0 0 194.90 623.76 L 194.85 624.54"/>
    <path stroke="#b69580" vector-effect="non-scaling-stroke" d=" M 182.31 381.24 C 207.23 389.83 234.21 383.51 252.36 364.35 Q 262.58 353.56 267.16 336.64"/>
    <path stroke="#b7a99a" vector-effect="non-scaling-stroke" d=" M 369.17 660.64 Q 363.49 674.16 351.74 685.74 C 331.55 705.64 303.98 715.92 275.80 717.28 C 233.40 719.32 191.94 701.25 170.74 663.78 A 1.60 1.59 33.9 0 1 170.55 662.82 Q 170.72 661.39 170.23 660.95"/>
    <path stroke="#e39387" vector-effect="non-scaling-stroke" d=" M 251.52 453.13 A 1.55 1.55 0.0 0 1 249.84 452.56 Q 235.72 433.47 213.17 429.10 Q 208.57 428.21 200.81 428.01 C 180.92 427.52 161.60 433.11 144.34 443.08 Q 142.14 444.35 141.84 447.13 Q 140.75 457.40 140.87 468.00 C 141.14 490.92 150.83 517.96 174.45 526.72 C 191.13 532.91 210.79 532.37 226.65 523.27 Q 248.65 510.63 253.68 484.24 Q 254.78 478.47 255.54 471.77 C 255.94 468.32 261.10 466.51 263.99 466.13 C 269.26 465.44 277.16 465.44 280.91 470.17 Q 281.88 471.40 282.12 474.51 C 283.02 486.21 285.52 498.34 292.94 508.07 Q 307.10 526.65 330.26 529.66 C 360.11 533.53 387.26 519.09 393.62 488.17 C 396.37 474.79 396.52 461.51 395.61 448.48 C 395.24 443.12 393.00 442.19 388.44 439.83 Q 373.15 431.92 357.09 428.65 Q 339.84 425.13 323.05 428.53 Q 299.74 433.24 286.26 452.06 A 2.43 2.41 -63.7 0 1 283.61 452.97 C 278.37 451.41 271.90 449.82 266.57 450.19 C 261.27 450.56 256.86 451.62 251.52 453.13"/>
    <path stroke="#e39387" vector-effect="non-scaling-stroke" d=" M 284.74 531.04 Q 282.82 531.56 278.74 533.98 Q 277.79 534.54 273.50 535.07 C 267.03 535.87 260.30 534.55 255.21 530.55 Q 252.01 528.03 252.07 524.06 Q 252.13 520.85 251.68 520.15 C 249.74 517.12 245.83 516.39 243.50 519.27 C 238.47 525.46 241.95 534.04 246.86 539.18 Q 250.11 542.57 256.00 544.66 Q 268.43 549.08 281.62 545.42 C 286.07 544.19 290.63 540.60 289.82 535.36 C 289.46 533.02 287.05 530.40 284.74 531.04"/>
    <path stroke="#e39387" vector-effect="non-scaling-stroke" d=" M 269.71 588.21 Q 289.51 588.26 307.22 578.75 C 313.12 575.58 328.71 564.22 319.74 557.08 C 318.07 555.75 315.11 555.76 313.71 557.22 Q 311.00 560.07 307.70 563.06 C 297.28 572.51 283.56 575.53 269.75 575.49 C 255.94 575.45 242.24 572.36 231.87 562.85 Q 228.58 559.84 225.89 556.97 C 224.50 555.51 221.54 555.48 219.86 556.80 C 210.85 563.89 226.38 575.34 232.26 578.54 Q 249.92 588.15 269.71 588.21"/>
    <path stroke="#e39387" vector-effect="non-scaling-stroke" d=" M 310.84 507.57 C 319.68 514.91 331.00 517.33 342.41 516.55 C 356.17 515.61 368.11 510.51 374.57 498.54 Q 381.44 485.82 381.03 470.23 C 380.84 462.97 379.49 455.92 374.18 451.29 Q 364.11 442.50 349.95 441.36 C 335.31 440.18 317.34 441.90 306.74 452.03 C 291.20 466.87 295.43 494.78 310.84 507.57"/>
    <path stroke="#e39387" vector-effect="non-scaling-stroke" d=" M 156.45 470.49 C 155.62 494.31 167.45 516.19 193.64 517.08 Q 202.91 517.40 210.25 515.98 C 231.14 511.93 245.54 484.44 238.63 465.56 C 231.14 445.08 208.37 440.61 189.02 442.17 C 178.76 442.99 166.53 447.16 160.14 455.63 C 157.14 459.62 156.63 465.43 156.45 470.49"/>
    <path stroke="#b69580" vector-effect="non-scaling-stroke" d=" M 337.91 474.99 C 343.53 475.10 347.90 478.01 350.56 482.94 Q 352.24 486.04 353.30 486.58 C 358.42 489.21 363.11 485.17 361.69 479.72 C 359.37 470.77 346.90 463.27 338.12 463.11 C 329.35 462.95 316.61 470.00 313.96 478.85 C 312.35 484.25 316.89 488.46 322.10 486.02 Q 323.18 485.51 324.97 482.47 C 327.81 477.65 332.28 474.89 337.91 474.99"/>
    <path stroke="#b69580" vector-effect="non-scaling-stroke" d=" M 198.98 475.24 C 204.64 475.15 209.14 477.94 211.98 482.80 Q 213.77 485.87 214.86 486.38 C 220.09 488.85 224.68 484.63 223.07 479.19 C 220.43 470.27 207.63 463.15 198.80 463.28 C 189.97 463.41 177.40 470.93 175.03 479.92 C 173.59 485.41 178.30 489.49 183.45 486.86 Q 184.53 486.31 186.22 483.20 C 188.91 478.25 193.32 475.33 198.98 475.24"/>
  </g>
  <path fill="#6e6657" d=" M 379.17 579.81 Q 386.59 564.96 389.90 548.44 A 0.56 0.55 24.4 0 1 390.79 548.11 C 398.04 553.75 406.93 551.25 412.00 544.23 Q 415.40 539.51 416.83 536.30 Q 423.26 521.89 426.10 505.21 Q 427.25 504.18 426.72 506.97 Q 424.65 517.91 420.74 529.00 C 418.04 536.68 413.41 546.89 405.76 550.51 Q 398.36 554.01 391.72 549.93 A 0.77 0.77 0.0 0 0 390.57 550.40 Q 386.89 565.11 380.86 578.28 A 1.19 1.18 20.3 0 0 381.62 579.91 C 397.68 584.46 416.72 582.89 430.25 573.18 Q 447.12 561.07 451.02 541.19 C 452.78 532.21 451.89 521.71 449.84 512.42 A 2.97 2.96 65.3 0 1 450.94 509.43 C 471.49 493.89 481.41 469.03 475.39 443.88 C 472.10 430.14 464.17 418.68 453.36 409.82 A 2.28 2.28 0.0 0 1 452.74 407.07 Q 456.96 398.27 458.49 389.47 C 459.47 383.89 459.17 376.06 459.02 371.53 Q 458.83 365.85 456.52 358.76 Q 447.64 331.63 421.43 320.60 Q 412.82 316.98 403.85 316.68 A 1.47 1.46 -5.1 0 1 402.47 315.53 C 401.89 312.84 401.73 309.69 400.99 306.49 Q 398.02 293.67 389.56 284.29 C 375.52 268.71 355.85 263.65 335.52 269.94 A 2.04 2.02 63.8 0 1 333.27 269.16 Q 315.11 243.11 283.81 237.96 C 261.75 234.32 238.11 238.84 220.58 252.87 Q 211.17 260.40 205.39 269.59 A 2.24 2.22 25.8 0 1 202.74 270.50 C 184.61 264.01 164.12 267.76 150.44 281.39 Q 139.61 292.17 136.49 306.74 Q 135.62 310.82 135.01 314.70 A 2.63 2.62 -88.0 0 1 132.65 316.91 Q 104.29 319.38 88.10 342.85 Q 78.62 356.61 77.85 374.70 Q 77.10 392.28 84.85 407.37 A 2.00 2.00 0.0 0 1 84.32 409.85 C 70.70 420.74 61.53 436.40 60.56 454.02 Q 59.16 479.37 75.78 499.53 Q 77.96 502.17 83.91 507.21 C 86.64 509.53 87.86 511.48 87.58 514.86 Q 87.52 515.56 86.59 523.61 Q 85.24 535.38 88.72 546.84 C 93.66 563.11 108.09 576.20 124.47 580.60 C 134.47 583.28 145.47 582.74 155.80 580.08 A 1.07 1.06 69.6 0 0 156.48 578.58 Q 149.99 565.26 146.66 550.26 A 0.78 0.77 67.6 0 0 145.49 549.77 Q 139.18 553.73 132.67 551.21 C 125.13 548.28 119.70 537.76 117.16 530.62 Q 111.71 515.30 110.61 499.78 Q 110.46 497.66 111.50 491.34 A 1.44 1.43 79.1 0 1 112.16 490.36 Q 119.42 485.85 125.54 476.24 Q 130.59 468.30 132.91 458.62 Q 135.74 446.88 135.42 436.40 Q 135.34 433.87 137.50 433.33 C 146.31 431.10 154.83 426.90 161.62 420.46 Q 167.38 414.98 168.48 413.48 Q 178.46 399.82 181.21 382.98 Q 181.37 382.04 182.03 381.41 C 178.41 407.20 162.81 427.59 137.06 434.15 A 0.70 0.69 82.4 0 0 136.53 434.85 Q 136.92 449.36 132.40 463.38 Q 126.82 480.69 112.70 491.03 A 1.69 1.69 0.0 0 0 112.00 492.38 C 111.93 496.98 111.22 502.63 112.12 507.53 Q 114.32 519.49 117.73 529.51 C 120.06 536.36 123.51 543.49 129.21 548.22 Q 136.62 554.38 146.62 548.53 A 0.39 0.39 0.0 0 1 147.20 548.78 Q 150.43 564.88 158.14 580.00 C 136.99 587.28 113.41 582.81 98.51 565.68 Q 81.46 546.08 85.88 519.36 Q 86.77 514.02 87.12 512.34 A 1.66 1.65 -66.1 0 0 86.48 510.66 C 51.79 484.83 49.37 436.32 83.78 408.95 A 0.93 0.92 -32.9 0 0 84.03 407.82 C 73.35 386.54 74.01 362.10 87.10 342.33 C 97.26 326.98 114.78 316.35 133.33 315.93 A 0.76 0.75 -88.7 0 0 134.06 315.23 C 135.41 297.49 144.76 281.03 160.68 272.48 Q 180.69 261.72 203.45 269.67 A 0.96 0.94 -65.9 0 0 204.60 269.22 C 208.77 261.50 216.86 253.86 223.78 249.16 Q 241.94 236.82 265.51 235.92 Q 280.16 235.36 291.67 238.57 Q 318.77 246.11 334.17 269.00 A 0.76 0.75 -25.9 0 0 335.05 269.30 C 368.65 258.15 400.19 280.62 403.13 315.16 A 0.86 0.86 0.0 0 0 403.95 315.94 C 418.74 316.55 433.20 323.50 443.18 334.44 Q 461.67 354.69 460.24 381.95 Q 459.51 396.00 453.33 407.88 A 0.92 0.91 32.9 0 0 453.58 409.02 C 468.14 420.11 477.24 437.60 477.95 455.93 C 478.79 477.76 468.78 497.24 451.20 510.41 A 1.31 1.30 -25.4 0 0 450.71 511.77 C 454.17 526.25 454.24 542.34 446.92 555.64 C 434.73 577.76 411.34 586.84 386.73 582.02 Q 381.98 581.09 379.17 579.81 Z"/>
  <path fill="#8c5e6a" d=" M 426.10 505.21 L 425.95 493.33 A 3.45 3.42 -74.3 0 0 424.37 490.49 Q 421.52 488.64 419.69 486.31 Q 412.83 477.13 410.51 473.49 Q 406.43 467.09 403.99 456.67 Q 401.70 446.87 401.54 435.47 A 2.79 2.79 0.0 0 0 399.48 432.82 C 390.60 430.43 381.97 426.27 375.47 419.84 Q 366.66 411.11 361.91 399.39 Q 358.46 390.87 357.33 382.87 A 1.79 1.79 0.0 0 0 355.13 381.38 C 347.61 383.22 338.90 384.72 330.97 384.24 Q 299.92 382.37 281.87 357.04 Q 279.48 353.70 274.87 343.34 C 273.19 339.58 272.29 334.69 270.89 330.26 A 0.21 0.21 0.0 0 0 270.48 330.27 Q 270.38 330.69 270.43 331.23 Q 270.33 329.48 269.66 328.64 A 0.27 0.27 0.0 0 0 269.19 328.74 L 267.16 336.64 Q 266.31 336.44 265.84 338.26 C 262.17 352.64 252.75 365.19 240.79 373.52 Q 231.66 379.88 218.54 382.96 C 215.59 383.65 212.46 383.60 209.24 384.20 Q 206.05 384.79 202.25 384.54 Q 192.01 383.89 183.10 380.96 A 0.61 0.58 -53.0 0 0 182.57 381.05 L 182.31 381.24 L 182.03 381.41 Q 181.37 382.04 181.21 382.98 Q 178.46 399.82 168.48 413.48 Q 167.38 414.98 161.62 420.46 C 154.83 426.90 146.31 431.10 137.50 433.33 Q 135.34 433.87 135.42 436.40 Q 135.74 446.88 132.91 458.62 Q 130.59 468.30 125.54 476.24 Q 119.42 485.85 112.16 490.36 A 1.44 1.43 79.1 0 0 111.50 491.34 Q 110.46 497.66 110.61 499.78 Q 111.71 515.30 117.16 530.62 C 119.70 537.76 125.13 548.28 132.67 551.21 Q 139.18 553.73 145.49 549.77 A 0.78 0.77 67.6 0 1 146.66 550.26 Q 149.99 565.26 156.48 578.58 A 1.07 1.06 69.6 0 1 155.80 580.08 C 145.47 582.74 134.47 583.28 124.47 580.60 C 108.09 576.20 93.66 563.11 88.72 546.84 Q 85.24 535.38 86.59 523.61 Q 87.52 515.56 87.58 514.86 C 87.86 511.48 86.64 509.53 83.91 507.21 Q 77.96 502.17 75.78 499.53 Q 59.16 479.37 60.56 454.02 C 61.53 436.40 70.70 420.74 84.32 409.85 A 2.00 2.00 0.0 0 0 84.85 407.37 Q 77.10 392.28 77.85 374.70 Q 78.62 356.61 88.10 342.85 Q 104.29 319.38 132.65 316.91 A 2.63 2.62 -88.0 0 0 135.01 314.70 Q 135.62 310.82 136.49 306.74 Q 139.61 292.17 150.44 281.39 C 164.12 267.76 184.61 264.01 202.74 270.50 A 2.24 2.22 25.8 0 0 205.39 269.59 Q 211.17 260.40 220.58 252.87 C 238.11 238.84 261.75 234.32 283.81 237.96 Q 315.11 243.11 333.27 269.16 A 2.04 2.02 63.8 0 0 335.52 269.94 C 355.85 263.65 375.52 268.71 389.56 284.29 Q 398.02 293.67 400.99 306.49 C 401.73 309.69 401.89 312.84 402.47 315.53 A 1.47 1.46 -5.1 0 0 403.85 316.68 Q 412.82 316.98 421.43 320.60 Q 447.64 331.63 456.52 358.76 Q 458.83 365.85 459.02 371.53 C 459.17 376.06 459.47 383.89 458.49 389.47 Q 456.96 398.27 452.74 407.07 A 2.28 2.28 0.0 0 0 453.36 409.82 C 464.17 418.68 472.10 430.14 475.39 443.88 C 481.41 469.03 471.49 493.89 450.94 509.43 A 2.97 2.96 65.3 0 0 449.84 512.42 C 451.89 521.71 452.78 532.21 451.02 541.19 Q 447.12 561.07 430.25 573.18 C 416.72 582.89 397.68 584.46 381.62 579.91 A 1.19 1.18 20.3 0 1 380.86 578.28 Q 386.89 565.11 390.57 550.40 A 0.77 0.77 0.0 0 1 391.72 549.93 Q 398.36 554.01 405.76 550.51 C 413.41 546.89 418.04 536.68 420.74 529.00 Q 424.65 517.91 426.72 506.97 Q 427.25 504.18 426.10 505.21 Z"/>
  <path fill="#fec4a8" d=" M 270.43 331.23 C 275.45 353.43 286.97 370.18 308.29 379.73 C 323.03 386.34 340.23 386.43 355.60 381.92 A 0.73 0.72 -12.2 0 1 356.52 382.51 C 359.80 404.49 372.19 423.79 393.65 431.88 Q 394.91 432.36 399.99 433.94 A 0.68 0.68 0.0 0 1 400.46 434.59 Q 400.52 453.00 406.51 467.70 Q 410.70 477.97 419.69 486.31 Q 421.52 488.64 424.37 490.49 A 3.45 3.42 -74.3 0 1 425.95 493.33 L 426.10 505.21 Q 423.26 521.89 416.83 536.30 Q 415.40 539.51 412.00 544.23 C 406.93 551.25 398.04 553.75 390.79 548.11 A 0.56 0.55 24.4 0 0 389.90 548.44 Q 386.59 564.96 379.17 579.81 Q 378.18 580.39 377.51 581.99 Q 376.69 583.94 376.36 584.49 Q 363.41 606.42 343.72 622.23 Q 339.60 626.22 333.87 630.14 C 321.94 638.30 309.08 644.54 295.30 647.68 C 265.99 654.34 235.63 649.35 209.50 633.75 Q 200.98 628.67 195.49 623.52 A 0.35 0.35 0.0 0 0 194.90 623.76 L 194.85 624.54 Q 194.94 623.53 194.13 622.88 Q 171.89 605.16 158.14 580.00 Q 150.43 564.88 147.20 548.78 A 0.39 0.39 0.0 0 0 146.62 548.53 Q 136.62 554.38 129.21 548.22 C 123.51 543.49 120.06 536.36 117.73 529.51 Q 114.32 519.49 112.12 507.53 C 111.22 502.63 111.93 496.98 112.00 492.38 A 1.69 1.69 0.0 0 1 112.70 491.03 Q 126.82 480.69 132.40 463.38 Q 136.92 449.36 136.53 434.85 A 0.70 0.69 82.4 0 1 137.06 434.15 C 162.81 427.59 178.41 407.20 182.03 381.41 L 182.31 381.24 C 207.23 389.83 234.21 383.51 252.36 364.35 Q 262.58 353.56 267.16 336.64 L 269.19 328.74 A 0.27 0.27 0.0 0 1 269.66 328.64 Q 270.33 329.48 270.43 331.23 Z M 251.52 453.13 A 1.55 1.55 0.0 0 1 249.84 452.56 Q 235.72 433.47 213.17 429.10 Q 208.57 428.21 200.81 428.01 C 180.92 427.52 161.60 433.11 144.34 443.08 Q 142.14 444.35 141.84 447.13 Q 140.75 457.40 140.87 468.00 C 141.14 490.92 150.83 517.96 174.45 526.72 C 191.13 532.91 210.79 532.37 226.65 523.27 Q 248.65 510.63 253.68 484.24 Q 254.78 478.47 255.54 471.77 C 255.94 468.32 261.10 466.51 263.99 466.13 C 269.26 465.44 277.16 465.44 280.91 470.17 Q 281.88 471.40 282.12 474.51 C 283.02 486.21 285.52 498.34 292.94 508.07 Q 307.10 526.65 330.26 529.66 C 360.11 533.53 387.26 519.09 393.62 488.17 C 396.37 474.79 396.52 461.51 395.61 448.48 C 395.24 443.12 393.00 442.19 388.44 439.83 Q 373.15 431.92 357.09 428.65 Q 339.84 425.13 323.05 428.53 Q 299.74 433.24 286.26 452.06 A 2.43 2.41 -63.7 0 1 283.61 452.97 C 278.37 451.41 271.90 449.82 266.57 450.19 C 261.27 450.56 256.86 451.62 251.52 453.13 Z M 284.74 531.04 Q 282.82 531.56 278.74 533.98 Q 277.79 534.54 273.50 535.07 C 267.03 535.87 260.30 534.55 255.21 530.55 Q 252.01 528.03 252.07 524.06 Q 252.13 520.85 251.68 520.15 C 249.74 517.12 245.83 516.39 243.50 519.27 C 238.47 525.46 241.95 534.04 246.86 539.18 Q 250.11 542.57 256.00 544.66 Q 268.43 549.08 281.62 545.42 C 286.07 544.19 290.63 540.60 289.82 535.36 C 289.46 533.02 287.05 530.40 284.74 531.04 Z M 269.71 588.21 Q 289.51 588.26 307.22 578.75 C 313.12 575.58 328.71 564.22 319.74 557.08 C 318.07 555.75 315.11 555.76 313.71 557.22 Q 311.00 560.07 307.70 563.06 C 297.28 572.51 283.56 575.53 269.75 575.49 C 255.94 575.45 242.24 572.36 231.87 562.85 Q 228.58 559.84 225.89 556.97 C 224.50 555.51 221.54 555.48 219.86 556.80 C 210.85 563.89 226.38 575.34 232.26 578.54 Q 249.92 588.15 269.71 588.21 Z"/>
  <path fill="#6e6657" d=" M 419.69 486.31 Q 410.70 477.97 406.51 467.70 Q 400.52 453.00 400.46 434.59 A 0.68 0.68 0.0 0 0 399.99 433.94 Q 394.91 432.36 393.65 431.88 C 372.19 423.79 359.80 404.49 356.52 382.51 A 0.73 0.72 -12.2 0 0 355.60 381.92 C 340.23 386.43 323.03 386.34 308.29 379.73 C 286.97 370.18 275.45 353.43 270.43 331.23 Q 270.38 330.69 270.48 330.27 A 0.21 0.21 0.0 0 1 270.89 330.26 C 272.29 334.69 273.19 339.58 274.87 343.34 Q 279.48 353.70 281.87 357.04 Q 299.92 382.37 330.97 384.24 C 338.90 384.72 347.61 383.22 355.13 381.38 A 1.79 1.79 0.0 0 1 357.33 382.87 Q 358.46 390.87 361.91 399.39 Q 366.66 411.11 375.47 419.84 C 381.97 426.27 390.60 430.43 399.48 432.82 A 2.79 2.79 0.0 0 1 401.54 435.47 Q 401.70 446.87 403.99 456.67 Q 406.43 467.09 410.51 473.49 Q 412.83 477.13 419.69 486.31 Z"/>
  <path fill="#6e6657" d=" M 267.16 336.64 Q 262.58 353.56 252.36 364.35 C 234.21 383.51 207.23 389.83 182.31 381.24 L 182.57 381.05 A 0.61 0.58 -53.0 0 1 183.10 380.96 Q 192.01 383.89 202.25 384.54 Q 206.05 384.79 209.24 384.20 C 212.46 383.60 215.59 383.65 218.54 382.96 Q 231.66 379.88 240.79 373.52 C 252.75 365.19 262.17 352.64 265.84 338.26 Q 266.31 336.44 267.16 336.64 Z"/>
  <path fill="#c86265" d=" M 251.52 453.13 C 256.86 451.62 261.27 450.56 266.57 450.19 C 271.90 449.82 278.37 451.41 283.61 452.97 A 2.43 2.41 -63.7 0 0 286.26 452.06 Q 299.74 433.24 323.05 428.53 Q 339.84 425.13 357.09 428.65 Q 373.15 431.92 388.44 439.83 C 393.00 442.19 395.24 443.12 395.61 448.48 C 396.52 461.51 396.37 474.79 393.62 488.17 C 387.26 519.09 360.11 533.53 330.26 529.66 Q 307.10 526.65 292.94 508.07 C 285.52 498.34 283.02 486.21 282.12 474.51 Q 281.88 471.40 280.91 470.17 C 277.16 465.44 269.26 465.44 263.99 466.13 C 261.10 466.51 255.94 468.32 255.54 471.77 Q 254.78 478.47 253.68 484.24 Q 248.65 510.63 226.65 523.27 C 210.79 532.37 191.13 532.91 174.45 526.72 C 150.83 517.96 141.14 490.92 140.87 468.00 Q 140.75 457.40 141.84 447.13 Q 142.14 444.35 144.34 443.08 C 161.60 433.11 180.92 427.52 200.81 428.01 Q 208.57 428.21 213.17 429.10 Q 235.72 433.47 249.84 452.56 A 1.55 1.55 0.0 0 0 251.52 453.13 Z M 310.84 507.57 C 319.68 514.91 331.00 517.33 342.41 516.55 C 356.17 515.61 368.11 510.51 374.57 498.54 Q 381.44 485.82 381.03 470.23 C 380.84 462.97 379.49 455.92 374.18 451.29 Q 364.11 442.50 349.95 441.36 C 335.31 440.18 317.34 441.90 306.74 452.03 C 291.20 466.87 295.43 494.78 310.84 507.57 Z M 156.45 470.49 C 155.62 494.31 167.45 516.19 193.64 517.08 Q 202.91 517.40 210.25 515.98 C 231.14 511.93 245.54 484.44 238.63 465.56 C 231.14 445.08 208.37 440.61 189.02 442.17 C 178.76 442.99 166.53 447.16 160.14 455.63 C 157.14 459.62 156.63 465.43 156.45 470.49 Z"/>
  <path fill="#fec4a8" d=" M 310.84 507.57 C 295.43 494.78 291.20 466.87 306.74 452.03 C 317.34 441.90 335.31 440.18 349.95 441.36 Q 364.11 442.50 374.18 451.29 C 379.49 455.92 380.84 462.97 381.03 470.23 Q 381.44 485.82 374.57 498.54 C 368.11 510.51 356.17 515.61 342.41 516.55 C 331.00 517.33 319.68 514.91 310.84 507.57 Z M 337.91 474.99 C 343.53 475.10 347.90 478.01 350.56 482.94 Q 352.24 486.04 353.30 486.58 C 358.42 489.21 363.11 485.17 361.69 479.72 C 359.37 470.77 346.90 463.27 338.12 463.11 C 329.35 462.95 316.61 470.00 313.96 478.85 C 312.35 484.25 316.89 488.46 322.10 486.02 Q 323.18 485.51 324.97 482.47 C 327.81 477.65 332.28 474.89 337.91 474.99 Z"/>
  <path fill="#fec4a8" d=" M 193.64 517.08 C 167.45 516.19 155.62 494.31 156.45 470.49 C 156.63 465.43 157.14 459.62 160.14 455.63 C 166.53 447.16 178.76 442.99 189.02 442.17 C 208.37 440.61 231.14 445.08 238.63 465.56 C 245.54 484.44 231.14 511.93 210.25 515.98 Q 202.91 517.40 193.64 517.08 Z M 198.98 475.24 C 204.64 475.15 209.14 477.94 211.98 482.80 Q 213.77 485.87 214.86 486.38 C 220.09 488.85 224.68 484.63 223.07 479.19 C 220.43 470.27 207.63 463.15 198.80 463.28 C 189.97 463.41 177.40 470.93 175.03 479.92 C 173.59 485.41 178.30 489.49 183.45 486.86 Q 184.53 486.31 186.22 483.20 C 188.91 478.25 193.32 475.33 198.98 475.24 Z"/>
  <path fill="#6e6657" d=" M 198.80 463.28 C 207.63 463.15 220.43 470.27 223.07 479.19 C 224.68 484.63 220.09 488.85 214.86 486.38 Q 213.77 485.87 211.98 482.80 C 209.14 477.94 204.64 475.15 198.98 475.24 C 193.32 475.33 188.91 478.25 186.22 483.20 Q 184.53 486.31 183.45 486.86 C 178.30 489.49 173.59 485.41 175.03 479.92 C 177.40 470.93 189.97 463.41 198.80 463.28 Z"/>
  <path fill="#6e6657" d=" M 337.91 474.99 C 332.28 474.89 327.81 477.65 324.97 482.47 Q 323.18 485.51 322.10 486.02 C 316.89 488.46 312.35 484.25 313.96 478.85 C 316.61 470.00 329.35 462.95 338.12 463.11 C 346.90 463.27 359.37 470.77 361.69 479.72 C 363.11 485.17 358.42 489.21 353.30 486.58 Q 352.24 486.04 350.56 482.94 C 347.90 478.01 343.53 475.10 337.91 474.99 Z"/>
  <path fill="#c86265" d=" M 284.74 531.04 C 287.05 530.40 289.46 533.02 289.82 535.36 C 290.63 540.60 286.07 544.19 281.62 545.42 Q 268.43 549.08 256.00 544.66 Q 250.11 542.57 246.86 539.18 C 241.95 534.04 238.47 525.46 243.50 519.27 C 245.83 516.39 249.74 517.12 251.68 520.15 Q 252.13 520.85 252.07 524.06 Q 252.01 528.03 255.21 530.55 C 260.30 534.55 267.03 535.87 273.50 535.07 Q 277.79 534.54 278.74 533.98 Q 282.82 531.56 284.74 531.04 Z"/>
  <path fill="#c86265" d=" M 269.75 575.49 C 283.56 575.53 297.28 572.51 307.70 563.06 Q 311.00 560.07 313.71 557.22 C 315.11 555.76 318.07 555.75 319.74 557.08 C 328.71 564.22 313.12 575.58 307.22 578.75 Q 289.51 588.26 269.71 588.21 Q 249.92 588.15 232.26 578.54 C 226.38 575.34 210.85 563.89 219.86 556.80 C 221.54 555.48 224.50 555.51 225.89 556.97 Q 228.58 559.84 231.87 562.85 C 242.24 572.36 255.94 575.45 269.75 575.49 Z"/>
  <path fill="#f9ac94" d=" M 343.72 622.23 Q 344.63 630.05 346.39 636.37 Q 350.62 651.57 364.78 658.41 Q 367.06 659.50 369.17 660.64 Q 363.49 674.16 351.74 685.74 C 331.55 705.64 303.98 715.92 275.80 717.28 C 233.40 719.32 191.94 701.25 170.74 663.78 A 1.60 1.59 33.9 0 1 170.55 662.82 Q 170.72 661.39 170.23 660.95 Q 186.21 654.15 191.76 638.51 Q 193.74 632.94 194.85 624.54 L 194.90 623.76 A 0.35 0.35 0.0 0 1 195.49 623.52 Q 200.98 628.67 209.50 633.75 C 235.63 649.35 265.99 654.34 295.30 647.68 C 309.08 644.54 321.94 638.30 333.87 630.14 Q 339.60 626.22 343.72 622.23 Z"/>
  <path fill="#75a5a0" d=" M 369.17 660.64 C 390.87 669.94 413.45 678.48 432.79 691.72 C 450.26 703.67 464.42 721.24 469.87 741.87 C 471.52 748.14 472.62 755.03 466.01 758.81 Q 459.87 762.33 454.93 764.19 C 440.70 769.54 425.94 772.77 410.62 775.58 Q 376.05 781.92 336.99 784.68 Q 249.74 790.86 160.93 780.09 Q 128.79 776.20 99.69 768.80 C 90.19 766.39 80.11 762.93 71.86 757.64 C 65.71 753.70 67.45 746.22 69.15 740.13 C 77.38 710.65 101.17 691.47 127.88 679.11 Q 144.18 671.56 161.13 665.13 C 164.22 663.96 167.23 662.42 170.23 660.95 Q 170.72 661.39 170.55 662.82 A 1.60 1.59 33.9 0 0 170.74 663.78 C 191.94 701.25 233.40 719.32 275.80 717.28 C 303.98 715.92 331.55 705.64 351.74 685.74 Q 363.49 674.16 369.17 660.64 Z"/>
</svg>